# xmcd CD database file
#
# Track frame offsets:
#	150
#	19797
#	38125
#	57772
#
# Disc length: 1012 seconds
#
# Revision: 1
# Processed by: cddbd v1.5.2PL0 Copyright (c) Steve Scherf et al.
# Submitted via: CDex 1.70beta2
#
DISCID=2803f204
DTITLE=浅香唯 - 笑顔の私
DYEAR=2005
DGENRE=JPop
TTITLE0=笑顔の私
TTITLE1=幸せの色
TTITLE2=笑顔の私 (karaoke)
TTITLE3=幸せの色 (karaoke)
EXTD=YEAR: 2005
EXTT0=
EXTT1=
EXTT2=
EXTT3=
PLAYORDER=
